<svg xmlns="http://www.w3.org/2000/svg" viewBox="0 0 512 512" fill="none" shape-rendering="geometricPrecision">
  <defs>
    <linearGradient id="bg" x1="0" y1="0" x2="0" y2="1">
      <stop offset="0" stop-color="#2a8a85"></stop>
      <stop offset="1" stop-color="#0c3a37"></stop>
    </linearGradient>
    <radialGradient id="glow" cx="30%" cy="22%" r="75%">
      <stop offset="0" stop-color="#7fd9d2" stop-opacity="0.42"></stop>
      <stop offset="1" stop-color="#7fd9d2" stop-opacity="0"></stop>
    </radialGradient>
    <linearGradient id="plate" x1="0" y1="0" x2="0" y2="1">
      <stop offset="0" stop-color="#ffffff"></stop>
      <stop offset="1" stop-color="#dff2ef"></stop>
    </linearGradient>
  </defs>
  <rect width="512" height="512" rx="104" fill="url(#bg)"></rect>
  <rect width="512" height="512" rx="104" fill="url(#glow)"></rect>
  <g stroke="#b5ece6" stroke-opacity="0.09" stroke-width="1.5">
    <path d="M64 64V448M128 64V448M192 64V448M256 64V448M320 64V448M384 64V448M448 64V448"></path>
    <path d="M64 64H448M64 128H448M64 192H448M64 256H448M64 320H448M64 384H448M64 448H448"></path>
  </g>

  
  <path d="M170 262 V372 H280" fill="none" stroke="#cdebe4" stroke-opacity="0.32" stroke-width="6" stroke-linecap="round" stroke-dasharray="2 16"></path>

  
  <path d="M280 262 H170" fill="none" stroke="#7fe6dc" stroke-opacity="0.65" stroke-width="4" stroke-dasharray="2 14" stroke-linecap="round"></path>
  <circle cx="280" cy="262" r="7" fill="#0c3a37" stroke="#7fe6dc" stroke-width="3"></circle>

  
  <path d="M170 150 V262 A110 110 0 0 0 280 372 H400" fill="none" stroke="#08332f" stroke-width="30" stroke-linecap="round" stroke-linejoin="round"></path>
  <path d="M170 150 V262 A110 110 0 0 0 280 372 H400" fill="none" stroke="url(#plate)" stroke-width="17" stroke-linecap="round" stroke-linejoin="round"></path>

  
  <path d="M170 262 A110 110 0 0 0 280 372" fill="none" stroke="#ff8a3d" stroke-width="17" stroke-linecap="round"></path>

  
  <circle cx="170" cy="262" r="16" fill="#ff8a3d" stroke="#08332f" stroke-width="5"></circle>
  <circle cx="170" cy="262" r="5" fill="#08332f"></circle>
  <circle cx="280" cy="372" r="16" fill="#ff8a3d" stroke="#08332f" stroke-width="5"></circle>
  <circle cx="280" cy="372" r="5" fill="#08332f"></circle>
</svg>